<?xml version="1.0" standalone="no"?>
<!DOCTYPE svg PUBLIC "-//W3C//DTD SVG 20010904//EN"
 "http://www.w3.org/TR/2001/REC-SVG-20010904/DTD/svg10.dtd">
<svg version="1.0" xmlns="http://www.w3.org/2000/svg"
 width="593.000000pt" height="421.000000pt" viewBox="0 0 593.000000 421.000000"
 preserveAspectRatio="xMidYMid meet">

<g transform="translate(0.000000,421.000000) scale(0.100000,-0.100000)"
fill="#000000" stroke="none">
<path d="M4145 3789 c-234 -16 -482 -65 -715 -143 -254 -84 -432 -136 -468
-136 -38 0 -169 36 -487 135 -189 58 -412 112 -515 124 -302 35 -787 20 -1102
-34 -367 -62 -489 -85 -509 -95 -17 -10 -19 -22 -18 -113 1 -56 4 -133 8 -171
l6 -69 77 -22 c175 -50 228 -113 278 -326 67 -286 82 -345 111 -420 36 -93
124 -230 196 -305 233 -243 603 -337 961 -244 96 24 147 44 242 95 93 49 244
195 315 304 58 90 82 147 147 351 56 172 92 251 134 294 79 79 205 75 289 -9
57 -56 80 -105 149 -305 107 -309 185 -439 331 -555 144 -114 281 -168 537
-210 72 -11 53 26 -59 118 -139 113 -279 170 -466 187 -62 6 -116 15 -122 21
-13 13 -19 792 -8 1054 9 212 5 205 81 174 30 -13 42 -11 155 28 147 51 241
70 409 85 149 13 376 -1 498 -31 174 -43 306 -84 318 -99 9 -13 12 -146 10
-617 l-3 -600 -60 -8 c-157 -21 -361 -89 -445 -149 -74 -52 -160 -130 -160
-144 0 -42 242 17 403 97 301 152 409 332 506 847 12 63 31 139 43 169 38 104
121 167 260 201 l73 18 3 169 c1 93 -1 172 -6 177 -20 20 -539 117 -737 138
-98 10 -480 31 -520 28 -11 0 -74 -5 -140 -9z m-2395 -189 c156 -9 241 -24
360 -62 145 -46 274 -134 325 -223 51 -86 60 -136 59 -325 0 -203 -18 -297
-83 -435 -119 -255 -302 -400 -564 -450 -172 -33 -321 -12 -487 67 -93 45
-115 60 -195 142 -76 76 -99 107 -137 186 -69 140 -89 231 -95 435 -9 298 18
407 129 511 97 90 286 150 513 162 11 1 90 -3 175 -8z m3590 -116 c5 -5 10
-27 12 -49 l3 -40 -110 0 -110 0 -3 40 c-5 58 14 68 116 63 45 -3 87 -9 92
-14z m-4585 -44 l0 -45 -105 0 -105 0 -3 33 c-6 56 9 63 117 60 l96 -3 0 -45z"/>
<path d="M3676 3372 c-2 -4 -2 -229 1 -501 6 -488 6 -493 27 -501 12 -5 61
-16 110 -24 133 -25 236 -73 334 -158 18 -15 37 -28 42 -28 6 0 10 180 10 486
l0 486 -32 31 c-79 74 -220 149 -361 192 -85 26 -122 31 -131 17z"/>
<path d="M4773 3350 c-147 -39 -280 -108 -372 -193 l-41 -38 0 -491 0 -490 41
37 c104 94 226 148 398 178 45 8 85 17 89 21 10 11 15 917 5 957 -11 42 -25
44 -120 19z"/>
<path d="M1852 1413 c-22 -9 -44 -63 -37 -94 15 -65 103 -92 150 -44 34 33 34
93 2 123 -22 21 -81 29 -115 15z"/>
<path d="M4086 1399 c-36 -28 -37 -89 -1 -124 53 -54 147 -17 147 59 0 77 -84
114 -146 65z"/>
<path d="M2907 1350 c-112 -40 -171 -91 -213 -186 -35 -79 -47 -163 -41 -277
10 -206 93 -326 256 -374 70 -20 264 -13 334 12 l47 17 0 109 0 109 -55 0 -55
0 0 -52 c0 -29 -4 -58 -8 -65 -20 -32 -124 -43 -210 -21 -66 16 -126 79 -148
155 -21 68 -24 236 -6 300 18 62 71 134 117 157 46 24 165 34 207 17 25 -9 27
-15 30 -73 l3 -63 55 0 55 0 0 105 0 105 -55 19 c-86 29 -240 32 -313 6z"/>
<path d="M1082 1313 c3 -43 6 -48 28 -51 14 -2 29 -8 34 -12 11 -11 16 -588 5
-617 -5 -15 -17 -23 -32 -23 -30 0 -47 -18 -47 -49 0 -52 -4 -52 306 -49 l289
3 0 120 0 120 -51 3 -51 3 -5 -56 c-3 -34 -11 -61 -19 -66 -8 -5 -63 -8 -124
-7 l-110 3 0 309 0 308 35 12 c32 10 35 14 35 51 l0 40 -148 3 -148 3 3 -48z"/>
<path d="M2291 1271 c-12 -12 -21 -27 -21 -34 0 -24 -60 -85 -90 -92 -20 -4
-32 -14 -36 -30 -11 -44 -1 -60 41 -65 l40 -5 5 -230 c4 -166 9 -237 18 -253
34 -59 196 -86 285 -49 33 14 37 20 31 39 -19 62 -24 70 -42 62 -33 -14 -83
-16 -112 -4 -43 18 -51 60 -48 262 l3 173 70 3 c38 2 75 8 82 14 7 6 13 28 13
49 l0 39 -80 0 c-89 0 -87 -2 -92 90 -3 38 -7 46 -25 48 -12 2 -31 -6 -42 -17z"/>
<path d="M4544 1282 c-6 -4 -24 -31 -40 -61 -22 -42 -38 -58 -74 -75 -41 -19
-45 -25 -45 -56 0 -34 1 -35 43 -38 l42 -3 0 -217 c0 -187 2 -222 18 -251 23
-47 56 -69 123 -82 61 -12 150 0 184 25 17 12 17 16 2 52 -9 23 -21 37 -29 35
-7 -2 -35 -6 -61 -9 -40 -4 -52 -1 -72 18 -25 23 -25 24 -25 227 l0 203 68 0
c79 0 92 9 92 62 l0 38 -80 0 -80 0 0 60 c0 56 -2 61 -26 70 -30 12 -26 12
-40 2z"/>
<path d="M3742 1159 c-18 -5 -51 -28 -72 -49 -22 -22 -44 -40 -50 -40 -5 0
-10 18 -10 40 l0 41 -97 -3 -98 -3 -3 -39 c-4 -42 8 -56 45 -56 39 0 44 -28
39 -236 -4 -208 -6 -214 -53 -214 -25 0 -39 -35 -28 -69 6 -20 13 -21 165 -21
l160 0 6 24 c12 48 2 60 -54 70 -28 5 -52 12 -52 15 -1 3 -2 83 -3 176 -2 187
1 202 56 235 59 36 117 24 117 -24 0 -51 12 -61 62 -50 l43 9 3 87 c2 77 1 88
-17 97 -29 16 -122 22 -159 10z"/>
<path d="M1777 1144 c-4 -4 -7 -24 -7 -45 0 -37 12 -49 50 -49 10 0 21 -7 24
-16 9 -24 7 -397 -3 -412 -4 -7 -21 -16 -37 -21 -26 -7 -29 -12 -29 -47 l0
-39 140 0 140 0 3 42 c3 41 2 42 -32 49 l-36 6 -2 267 -3 266 -101 3 c-55 1
-103 0 -107 -4z"/>
<path d="M4022 1103 c3 -45 5 -48 33 -53 l30 -5 3 -210 c2 -189 1 -211 -15
-222 -9 -7 -27 -13 -40 -13 -22 0 -24 -4 -21 -42 l3 -43 141 -3 142 -3 4 41
c4 47 -5 60 -44 60 l-28 0 -2 268 -3 267 -103 3 -103 3 3 -48z"/>
</g>
</svg>
